<svg data-v-423bf9ae="" xmlns="http://www.w3.org/2000/svg" viewBox="0 0 409 90" class="iconLeft"><!----><!----><!----><g data-v-423bf9ae="" id="5e65b144-7aa8-4eb4-aeda-2b0d848ad454" fill="#4b7c3f" transform="matrix(4.1039674680923515,0,0,4.1039674680923515,107.7428184652733,3.9603267991635107)"><path d="M6.69 11.73L6.69 12.84L6.69 12.84Q6.35 13.12 6.03 13.30L6.03 13.30L6.03 13.30Q5.71 13.48 5.39 13.59L5.39 13.59L5.39 13.59Q5.07 13.69 4.75 13.74L4.75 13.74L4.75 13.74Q4.44 13.78 4.11 13.78L4.11 13.78L4.11 13.78Q3.25 13.78 2.59 13.53L2.59 13.53L2.59 13.53Q1.93 13.28 1.47 12.83L1.47 12.83L1.47 12.83Q1.02 12.38 0.78 11.76L0.78 11.76L0.78 11.76Q0.55 11.14 0.55 10.39L0.55 10.39L0.55 10.39Q0.55 9.47 0.90 8.71L0.90 8.71L0.90 8.71Q1.24 7.95 1.85 7.41L1.85 7.41L1.85 7.41Q2.45 6.86 3.27 6.56L3.27 6.56L3.27 6.56Q4.09 6.26 5.04 6.26L5.04 6.26L5.04 6.26Q5.19 6.26 5.38 6.27L5.38 6.27L5.38 6.27Q5.58 6.28 5.81 6.31L5.81 6.31L5.81 6.31Q6.04 6.34 6.29 6.38L6.29 6.38L6.29 6.38Q6.54 6.43 6.81 6.51L6.81 6.51L6.44 8.19L6.32 8.26L6.32 8.26Q6.21 8.20 6.07 8.13L6.07 8.13L6.07 8.13Q5.93 8.06 5.76 8.00L5.76 8.00L5.76 8.00Q5.58 7.95 5.39 7.91L5.39 7.91L5.39 7.91Q5.20 7.88 5.00 7.88L5.00 7.88L5.00 7.88Q4.63 7.88 4.32 8.02L4.32 8.02L4.32 8.02Q4.02 8.17 3.80 8.44L3.80 8.44L3.80 8.44Q3.59 8.71 3.47 9.10L3.47 9.10L3.47 9.10Q3.35 9.49 3.35 9.97L3.35 9.97L3.35 9.97Q3.35 10.53 3.50 10.91L3.50 10.91L3.50 10.91Q3.65 11.30 3.92 11.55L3.92 11.55L3.92 11.55Q4.18 11.79 4.56 11.90L4.56 11.90L4.56 11.90Q4.94 12.02 5.39 12.02L5.39 12.02L5.39 12.02Q5.54 12.02 5.68 12.00L5.68 12.00L5.68 12.00Q5.82 11.99 5.98 11.96L5.98 11.96L5.98 11.96Q6.13 11.92 6.30 11.87L6.30 11.87L6.30 11.87Q6.47 11.81 6.69 11.73L6.69 11.73ZM8.14 13.64L8.14 2.69L10.88 2.69L10.88 13.64L8.14 13.64ZM16.71 12.61L16.71 12.61L16.71 12.61Q16.50 12.79 16.23 13.00L16.23 13.00L16.23 13.00Q15.97 13.20 15.66 13.37L15.66 13.37L15.66 13.37Q15.35 13.55 15.00 13.67L15.00 13.67L15.00 13.67Q14.65 13.78 14.27 13.78L14.27 13.78L14.27 13.78Q13.76 13.78 13.40 13.58L13.40 13.58L13.40 13.58Q13.04 13.38 12.82 13.07L12.82 13.07L12.82 13.07Q12.59 12.76 12.49 12.40L12.49 12.40L12.49 12.40Q12.38 12.03 12.38 11.70L12.38 11.70L12.38 11.70Q12.38 11.17 12.63 10.73L12.63 10.73L12.63 10.73Q12.88 10.28 13.39 9.96L13.39 9.96L13.39 9.96Q13.90 9.63 14.66 9.45L14.66 9.45L14.66 9.45Q15.43 9.27 16.45 9.27L16.45 9.27L16.60 9.27L16.60 8.91L16.60 8.91Q16.60 8.39 16.28 8.13L16.28 8.13L16.28 8.13Q15.96 7.88 15.42 7.88L15.42 7.88L15.42 7.88Q15.16 7.88 14.89 7.94L14.89 7.94L14.89 7.94Q14.61 8.00 14.33 8.11L14.33 8.11L14.33 8.11Q14.05 8.22 13.77 8.36L13.77 8.36L13.77 8.36Q13.50 8.50 13.25 8.67L13.25 8.67L13.13 8.60L12.69 7.01L12.69 7.01Q13.60 6.62 14.42 6.44L14.42 6.44L14.42 6.44Q15.24 6.26 16.06 6.26L16.06 6.26L16.06 6.26Q16.72 6.26 17.31 6.38L17.31 6.38L17.31 6.38Q17.90 6.50 18.35 6.78L18.35 6.78L18.35 6.78Q18.81 7.05 19.07 7.52L19.07 7.52L19.07 7.52Q19.34 7.98 19.34 8.67L19.34 8.67L19.34 11.36L19.34 11.36Q19.34 11.63 19.44 11.82L19.44 11.82L19.44 11.82Q19.54 12.02 19.83 12.02L19.83 12.02L19.83 12.02Q19.93 12.02 20.00 12.01L20.00 12.01L20.00 12.01Q20.07 12.00 20.17 11.96L20.17 11.96L20.17 13.07L20.17 13.07Q19.69 13.41 19.20 13.60L19.20 13.60L19.20 13.60Q18.72 13.78 18.27 13.78L18.27 13.78L18.27 13.78Q17.73 13.78 17.34 13.50L17.34 13.50L17.34 13.50Q16.95 13.23 16.71 12.61ZM16.60 11.70L16.60 10.12L16.43 10.12L16.43 10.12Q15.98 10.12 15.66 10.19L15.66 10.19L15.66 10.19Q15.35 10.25 15.16 10.38L15.16 10.38L15.16 10.38Q14.97 10.51 14.89 10.70L14.89 10.70L14.89 10.70Q14.80 10.89 14.80 11.14L14.80 11.14L14.80 11.14Q14.80 11.38 14.87 11.55L14.87 11.55L14.87 11.55Q14.94 11.72 15.06 11.82L15.06 11.82L15.06 11.82Q15.18 11.93 15.34 11.97L15.34 11.97L15.34 11.97Q15.49 12.02 15.65 12.02L15.65 12.02L15.65 12.02Q15.87 12.02 16.12 11.94L16.12 11.94L16.12 11.94Q16.37 11.87 16.60 11.70L16.60 11.70ZM21.33 13.64L21.33 6.40L23.67 6.40L23.99 8.50L23.99 8.50Q24.10 8.29 24.22 8.08L24.22 8.08L24.22 8.08Q24.34 7.88 24.44 7.70L24.44 7.70L24.44 7.70Q24.53 7.53 24.61 7.40L24.61 7.40L24.61 7.40Q24.68 7.27 24.70 7.23L24.70 7.23L24.70 7.23Q24.83 7.02 24.98 6.84L24.98 6.84L24.98 6.84Q25.14 6.67 25.33 6.54L25.33 6.54L25.33 6.54Q25.53 6.41 25.77 6.33L25.77 6.33L25.77 6.33Q26.01 6.26 26.32 6.26L26.32 6.26L26.32 6.26Q26.52 6.26 26.77 6.32L26.77 6.32L26.77 6.32Q27.03 6.37 27.25 6.49L27.25 6.49L26.95 8.93L26.95 8.93Q26.89 8.91 26.77 8.90L26.77 8.90L26.77 8.90Q26.66 8.89 26.53 8.89L26.53 8.89L26.53 8.89Q26.40 8.88 26.28 8.88L26.28 8.88L26.28 8.88Q26.15 8.87 26.07 8.87L26.07 8.87L26.07 8.87Q25.76 8.87 25.47 8.91L25.47 8.91L25.47 8.91Q25.18 8.96 24.91 9.03L24.91 9.03L24.91 9.03Q24.65 9.11 24.43 9.23L24.43 9.23L24.43 9.23Q24.21 9.34 24.07 9.47L24.07 9.47L24.07 13.64L21.33 13.64ZM28.62 13.64L28.62 6.40L31.36 6.40L31.36 13.64L28.62 13.64ZM29.95 5.40L29.95 5.40L29.95 5.40Q29.60 5.40 29.32 5.30L29.32 5.30L29.32 5.30Q29.04 5.20 28.84 5.03L28.84 5.03L28.84 5.03Q28.64 4.85 28.54 4.62L28.54 4.62L28.54 4.62Q28.43 4.39 28.43 4.12L28.43 4.12L28.43 4.12Q28.43 3.85 28.55 3.60L28.55 3.60L28.55 3.60Q28.66 3.36 28.88 3.18L28.88 3.18L28.88 3.18Q29.09 3.00 29.38 2.90L29.38 2.90L29.38 2.90Q29.67 2.79 30.03 2.79L30.03 2.79L30.03 2.79Q30.38 2.79 30.66 2.89L30.66 2.89L30.66 2.89Q30.94 2.99 31.14 3.16L31.14 3.16L31.14 3.16Q31.34 3.34 31.44 3.57L31.44 3.57L31.44 3.57Q31.55 3.80 31.55 4.07L31.55 4.07L31.55 4.07Q31.55 4.35 31.43 4.59L31.43 4.59L31.43 4.59Q31.32 4.83 31.10 5.01L31.10 5.01L31.10 5.01Q30.89 5.19 30.60 5.29L30.60 5.29L30.60 5.29Q30.30 5.40 29.95 5.40ZM33.83 11.07L33.83 8.01L32.38 8.01L32.55 6.89L32.55 6.89Q32.92 6.75 33.18 6.62L33.18 6.62L33.18 6.62Q33.45 6.50 33.65 6.37L33.65 6.37L33.65 6.37Q33.86 6.23 34.02 6.08L34.02 6.08L34.02 6.08Q34.17 5.92 34.32 5.71L34.32 5.71L34.32 5.71Q34.47 5.50 34.63 5.22L34.63 5.22L34.63 5.22Q34.79 4.94 35.01 4.57L35.01 4.57L36.37 4.57L36.37 6.40L38.92 6.40L38.56 8.01L36.57 8.01L36.57 10.79L36.57 10.79Q36.57 11.47 36.91 11.74L36.91 11.74L36.91 11.74Q37.26 12.02 37.93 12.02L37.93 12.02L37.93 12.02Q38.17 12.02 38.42 11.98L38.42 11.98L38.42 11.98Q38.68 11.94 38.92 11.84L38.92 11.84L38.92 12.95L38.92 12.95Q38.36 13.38 37.66 13.58L37.66 13.58L37.66 13.58Q36.96 13.78 36.28 13.78L36.28 13.78L36.28 13.78Q35.59 13.78 35.13 13.59L35.13 13.59L35.13 13.59Q34.66 13.40 34.37 13.05L34.37 13.05L34.37 13.05Q34.08 12.69 33.96 12.20L33.96 12.20L33.96 12.20Q33.83 11.70 33.83 11.07L33.83 11.07ZM41.82 13.64L39.59 6.40L42.51 6.40L43.41 10.27L43.67 11.73L43.81 11.73L44.06 10.27L44.97 6.40L47.22 6.40L43.88 17.31L41.54 17.31L43.11 13.64L41.82 13.64ZM51.05 13.64L51.05 2.69L53.79 2.69L53.79 13.64L51.05 13.64ZM55.70 13.64L55.70 6.40L58.43 6.40L58.43 13.64L55.70 13.64ZM57.03 5.40L57.03 5.40L57.03 5.40Q56.68 5.40 56.40 5.30L56.40 5.30L56.40 5.30Q56.12 5.20 55.92 5.03L55.92 5.03L55.92 5.03Q55.72 4.85 55.61 4.62L55.61 4.62L55.61 4.62Q55.51 4.39 55.51 4.12L55.51 4.12L55.51 4.12Q55.51 3.85 55.62 3.60L55.62 3.60L55.62 3.60Q55.74 3.36 55.95 3.18L55.95 3.18L55.95 3.18Q56.16 3.00 56.46 2.90L56.46 2.90L56.46 2.90Q56.75 2.79 57.11 2.79L57.11 2.79L57.11 2.79Q57.46 2.79 57.74 2.89L57.74 2.89L57.74 2.89Q58.02 2.99 58.21 3.16L58.21 3.16L58.21 3.16Q58.41 3.34 58.52 3.57L58.52 3.57L58.52 3.57Q58.63 3.80 58.63 4.07L58.63 4.07L58.63 4.07Q58.63 4.35 58.51 4.59L58.51 4.59L58.51 4.59Q58.39 4.83 58.18 5.01L58.18 5.01L58.18 5.01Q57.97 5.19 57.67 5.29L57.67 5.29L57.67 5.29Q57.38 5.40 57.03 5.40ZM59.87 13.26L60.24 11.57L60.36 11.50L60.36 11.50Q60.65 11.66 60.95 11.78L60.95 11.78L60.95 11.78Q61.26 11.90 61.55 11.99L61.55 11.99L61.55 11.99Q61.85 12.07 62.14 12.12L62.14 12.12L62.14 12.12Q62.43 12.17 62.69 12.17L62.69 12.17L62.69 12.17Q62.96 12.17 63.14 12.12L63.14 12.12L63.14 12.12Q63.33 12.07 63.44 11.98L63.44 11.98L63.44 11.98Q63.55 11.90 63.60 11.80L63.60 11.80L63.60 11.80Q63.66 11.69 63.66 11.58L63.66 11.58L63.66 11.58Q63.66 11.38 63.50 11.25L63.50 11.25L63.50 11.25Q63.35 11.12 63.10 11.03L63.10 11.03L63.10 11.03Q62.85 10.94 62.53 10.88L62.53 10.88L62.53 10.88Q62.21 10.81 61.88 10.71L61.88 10.71L61.88 10.71Q61.54 10.62 61.23 10.48L61.23 10.48L61.23 10.48Q60.91 10.34 60.66 10.11L60.66 10.11L60.66 10.11Q60.41 9.89 60.26 9.56L60.26 9.56L60.26 9.56Q60.10 9.23 60.10 8.75L60.10 8.75L60.10 8.75Q60.10 8.19 60.33 7.73L60.33 7.73L60.33 7.73Q60.55 7.27 61.00 6.95L61.00 6.95L61.00 6.95Q61.46 6.62 62.13 6.44L62.13 6.44L62.13 6.44Q62.80 6.26 63.69 6.26L63.69 6.26L63.69 6.26Q63.92 6.26 64.21 6.28L64.21 6.28L64.21 6.28Q64.49 6.29 64.77 6.32L64.77 6.32L64.77 6.32Q65.06 6.34 65.32 6.39L65.32 6.39L65.32 6.39Q65.59 6.43 65.79 6.49L65.79 6.49L65.42 8.19L65.30 8.26L65.30 8.26Q64.77 8.05 64.30 7.96L64.30 7.96L64.30 7.96Q63.82 7.88 63.49 7.88L63.49 7.88L63.49 7.88Q63.22 7.88 63.04 7.92L63.04 7.92L63.04 7.92Q62.86 7.97 62.76 8.05L62.76 8.05L62.76 8.05Q62.65 8.13 62.61 8.23L62.61 8.23L62.61 8.23Q62.56 8.33 62.56 8.44L62.56 8.44L62.56 8.44Q62.56 8.65 62.72 8.78L62.72 8.78L62.72 8.78Q62.87 8.91 63.12 9.00L63.12 9.00L63.12 9.00Q63.37 9.09 63.69 9.16L63.69 9.16L63.69 9.16Q64.00 9.23 64.34 9.32L64.34 9.32L64.34 9.32Q64.67 9.41 64.99 9.54L64.99 9.54L64.99 9.54Q65.31 9.67 65.56 9.88L65.56 9.88L65.56 9.88Q65.81 10.10 65.96 10.43L65.96 10.43L65.96 10.43Q66.12 10.75 66.12 11.22L66.12 11.22L66.12 11.22Q66.12 11.72 65.93 12.19L65.93 12.19L65.93 12.19Q65.73 12.65 65.32 13.00L65.32 13.00L65.32 13.00Q64.90 13.36 64.25 13.57L64.25 13.57L64.25 13.57Q63.59 13.78 62.67 13.78L62.67 13.78L62.67 13.78Q62.33 13.78 61.96 13.75L61.96 13.75L61.96 13.75Q61.60 13.72 61.23 13.65L61.23 13.65L61.23 13.65Q60.87 13.59 60.52 13.49L60.52 13.49L60.52 13.49Q60.17 13.40 59.87 13.26L59.87 13.26ZM68.11 11.07L68.11 8.01L66.66 8.01L66.83 6.89L66.83 6.89Q67.20 6.75 67.46 6.62L67.46 6.62L67.46 6.62Q67.73 6.50 67.94 6.37L67.94 6.37L67.94 6.37Q68.14 6.23 68.30 6.08L68.30 6.08L68.30 6.08Q68.46 5.92 68.61 5.71L68.61 5.71L68.61 5.71Q68.76 5.50 68.92 5.22L68.92 5.22L68.92 5.22Q69.08 4.94 69.29 4.57L69.29 4.57L70.66 4.57L70.66 6.40L73.20 6.40L72.84 8.01L70.85 8.01L70.85 10.79L70.85 10.79Q70.85 11.47 71.19 11.74L71.19 11.74L71.19 11.74Q71.54 12.02 72.21 12.02L72.21 12.02L72.21 12.02Q72.45 12.02 72.70 11.98L72.70 11.98L72.70 11.98Q72.96 11.94 73.21 11.84L73.21 11.84L73.21 12.95L73.21 12.95Q72.64 13.38 71.94 13.58L71.94 13.58L71.94 13.58Q71.24 13.78 70.56 13.78L70.56 13.78L70.56 13.78Q69.88 13.78 69.41 13.59L69.41 13.59L69.41 13.59Q68.94 13.40 68.65 13.05L68.65 13.05L68.65 13.05Q68.37 12.69 68.24 12.20L68.24 12.20L68.24 12.20Q68.11 11.70 68.11 11.07L68.11 11.07Z"></path></g><!----><g data-v-423bf9ae="" id="fa0b924d-e9a2-4c9b-961d-2096da03ceb8" transform="matrix(1.125,0,0,1.125,-11.25,-11.25)" stroke="none" fill="#4b7c3f"><path d="M10 10v80h54.932L52.109 71.692c-3.685-5.273-2.399-12.559 2.864-16.246 4.567-3.2 11.198-2.517 15.026 1.39V10H10zm33.333 70H20v-6.667h23.333V80zm0-13.333H20V60h23.333v6.667zm-6.666-23.334l-10-10 4.714-4.714 5.286 5.283 11.953-11.95 4.713 4.713-16.666 16.668z"></path><path d="M57.571 67.868L73.069 90H90V56.094a6.642 6.642 0 0 0-1.953-4.713L76.667 40v28.184H70l-4.238-6.052a5 5 0 0 0-8.191 5.736z"></path></g><!----></svg>